<svg xmlns="http://www.w3.org/2000/svg" viewBox="0 0 383.03 361.7"><defs><style>.cls-1{fill:#d63875;}</style></defs><title>VOTE4ME</title><g id="Layer_2" data-name="Layer 2"><g id="Layer_1-2" data-name="Layer 1"><path class="cls-1" d="M.43,174.44H12c.72,0,1.43,2.44,2.15,7.3Q18.9,207.36,18.91,208q1.71,8.37,3.43,18.9.43,1.35,2.37,11.82-1.93,12.67-2.37,12.67l-2.14.22H15.68q-2.14,0-2.14-3.87Q6.45,210.9,4.3,197.86A54.12,54.12,0,0,1,3,190.77a2.48,2.48,0,0,1,1.29-.22v-.43c-1.29,0-1.94-1-1.94-3Q1.51,183.9,0,174.65Zm6.23,26.85.86.22.21-.43-.43-.21H7.09C6.8,200.9,6.66,201,6.66,201.29ZM9,192.7v.22c0,.21.29.43.86.64l.22-.43a.38.38,0,0,0-.43-.43Zm20.2-18.48h6.44q0,1.29-7.09,41.47l.22.43q-1.72,8.49-2.15,13.1h-.43Q25.13,224,24.49,218.7q-1.5-6.62-2.58-13.32,0-1.35,3-17.62,1.08-7.14,2.37-12.68A3.43,3.43,0,0,1,29.22,174.22Z"/><path class="cls-1" d="M58.22,172.83c.86,0,1.29.64,1.29,1.93V184a2.7,2.7,0,0,1-1.93,2.58q-1.89,0-3,5.58v33.73l.22,1.29a1.62,1.62,0,0,0-.22.65q0,9.61,3,11.17c1.43.54,2.15,1.25,2.15,2.15v10.31c0,.22-.22.43-.65.65q-12.34,0-17-14.18A242.84,242.84,0,0,1,41,213V195.6a1.59,1.59,0,0,0,1.5-1.07v-.43c0-.75-.22-1.18-.65-1.29h-.21c0,.57-.14.86-.43.86H41l.21-.43v-.86a24.09,24.09,0,0,1,2.36-9.45,17.15,17.15,0,0,1,7.52-7.74A30.91,30.91,0,0,1,58.22,172.83ZM41.46,196.46v.65a.38.38,0,0,0,.43-.43Zm2.37-1.29.43.22v-.65C44,194.78,43.83,194.92,43.83,195.17Zm0,6.23v.43h.64v-.43ZM44,185.07c0,.29.18.43.43.43h.65v-.86h-.65C44.19,184.68,44,184.82,44,185.07Zm0,6.45v.64c0,.29.18.43.43.43l.43-.21c-.21-.57-.43-.86-.64-.86Zm1.08,21.7v.43l1.07-.22V213a.38.38,0,0,0-.43-.43C45.55,212.57,45.33,212.79,45.12,213.22Zm0,2.36v.65c0,.28.18.43.43.43l.43-.22-.22-1.29h-.21C45.26,215.19,45.12,215.33,45.12,215.58Zm0,11.6v.65h.21a.38.38,0,0,0,.43-.43l-.43-.22Zm1.72-10.52c0,.28.17.43.43.43h.64v-.22c0-.21-.21-.43-.64-.64C47,216.26,46.84,216.41,46.84,216.66Zm.64,3.65v.21c0,.29.18.43.43.43H49a.38.38,0,0,0,.43-.43l-.64-.43h-.22Zm0,26.21v.21h.43v-.21ZM48.77,228v.22h.43V228Zm3.65,14.83v.21c0,.29.18.43.43.43h.65a.38.38,0,0,0,.43-.43l-.43-.21Zm0,5.37v.21c.36,1,.93,1.51,1.72,1.51h.65a.38.38,0,0,0,.42-.43v-.22c0-.28-.21-.43-.64-.43l-1.07.22a1.57,1.57,0,0,1-.43-.86Zm11-75.2h.86q5.37.44,10.74,5.59,5.8,6,5.8,18.69v4.08q0,10.15.22,25.78,0,13-3.87,17,0,1-3,3.22,0,1.4-5.58,3.87a17.33,17.33,0,0,1-4.52.86c-.71,0-1.07-1-1.07-3V242q0-1.94,2.79-3.44,1.13,0,2.15-8.16v-.22q-.75-35.92-1.29-40,0-1.77-3.87-4.73l-.21-1.29V175C62.52,173.87,62.81,173.22,63.38,173ZM72,247.38l.43.21c.57-.21.86-.43.86-.64a.38.38,0,0,0-.43-.43C72.62,246.52,72.33,246.81,72,247.38Zm1.72-9.88c0,.21.29.5.86.86h.22c.53-.72,1-1.08,1.28-1.08,0-.21-.21-.43-.64-.64H75.2A1.47,1.47,0,0,0,73.69,237.5Z"/><path class="cls-1" d="M98.29,174.44c1.15,0,1.72,1.07,1.72,3.22v7.09c0,1.29-.93,1.94-2.79,1.94H89.05A2.12,2.12,0,0,1,88,184.54V177q0-2.58,1.5-2.58Zm6.66-.22h10.74c.22,0,.43.22.65.65v.43q0,1.19.43,7.09a15.84,15.84,0,0,1-.22,2.36,13.63,13.63,0,0,1,.22,2.79V188c0,.43-.65.79-1.94,1.08h-.64a15.62,15.62,0,0,1-1.72-.43H112a1.48,1.48,0,0,0,.86,1.5h1.5l1.29-.21c.72.18,1.08.39,1.08.64v1.08h-1.72q-.27,0-1.08,1.5l2.58.86.22.43v.64l-1.08.86v.86c.72.11,1.08.33,1.08.65q.21,8.91.21,13.75v1.07c0,.15-.07.22-.21.22l.21.43v4.94a.38.38,0,0,1-.43.43c-.36-.72-.64-1.08-.86-1.08h-1.07c-.29,0-.43.18-.43.43q1,1.29,1.5,1.29l1.08-.21.21.43v31.79a.38.38,0,0,1-.43.43h-.21a14.11,14.11,0,0,0-2.58.22,1.64,1.64,0,0,1-.86-.22c-2,.15-3.72.22-5.16.22h-3.86a.38.38,0,0,1-.43-.43V246c.28-4.22.43-6.51.43-6.87V229a27.73,27.73,0,0,0-.22-3c0-.14.07-.21.22-.21-.15-1.72-.22-3-.22-3.87q0-16.86-.21-46.62A1.41,1.41,0,0,1,105,174.22Zm5.16,11.61c.28,0,.43.18.43.43a1.54,1.54,0,0,1,.64-.22c0-.21-.21-.43-.64-.64C110.25,185.43,110.11,185.58,110.11,185.83Zm0,22.13.43.21,1.07-.21a.38.38,0,0,0-.43-.43h-.64C110.25,207.56,110.11,207.71,110.11,208Zm1.07,4.51v.43h.22v-.43Zm0,4.08v.21c0,.29.18.43.43.43h.22C111.83,217,111.61,216.76,111.18,216.55Zm.65-30.29,1.29.43.42-.65c-.35-.71-.64-1.07-.85-1.07h-.22C112,185.11,111.83,185.54,111.83,186.26Zm0,40.82v.21c0,.22.28.5.86.86h.43v-.21c-.22-.58-.43-.86-.65-.86Zm.43-21.49c0,.22.21.43.64.65v-.65Zm.21-23.42V183h.65v-.86Zm0,18.05v.22c0,.28.18.43.43.43h.43v-.22a.38.38,0,0,0-.43-.43Zm0,17.19v.43a1.73,1.73,0,0,1,.65.21l.21-.43-.43-.21Zm0,6.23v.43h1.72v1.07c0,.29.18.43.43.43h.86v-.43a2.06,2.06,0,0,1-.65-1.5Zm0,17.4c0,.29.18.43.43.43h.43V241Zm.43-48.34c0,.29.18.43.43.43h.21v-.43Zm.22,14.18L112.9,208l.43.21a.38.38,0,0,0,.43-.43v-.21C113.76,207.31,113.54,207.1,113.12,206.88Zm.21,5.8-.21,1.08v.86c0,.32.5.6,1.5.85h.21v-.21q-.8-.1-1.29-2.58Zm1.07,8.17v.64a12.18,12.18,0,0,1,1.29.22,1.57,1.57,0,0,1,.65-.22v-.43l-1.29-.43A1.74,1.74,0,0,1,114.4,220.85Zm.22-34.81v.22a1.33,1.33,0,0,0,1.5,1.5l.22-.43v-.86l-1.51-.43Zm.21,17.62v.43h.43v-.43Zm.86-21.06v.65h.65V183a.39.39,0,0,0-.43-.43Zm14.83-8.16c1.14,0,1.72,1.07,1.72,3.22v4.94l-.43.65v.21l.43.65v.64c0,.86-.58,1.51-1.72,1.94h-.22c0-.72-.28-1.08-.86-1.08a1.71,1.71,0,0,1-.64.22V186l.21.43-.43.22h-6.23q-.75-1.08-1.29-1.08h-.64a1.74,1.74,0,0,1-.21-.86V177q0-2.58,1.5-2.58Zm-9.67,4.08V179c0,.22.29.43.86.65l.21-.43C121.92,178.84,121.57,178.63,120.85,178.52Zm2.58,3.44v.21c0,.29.18.43.43.43h.21V182Zm5.58.64-.21.43v.22c.28,0,.43.07.43.21a1.64,1.64,0,0,1,.64-.21v-.43Z"/><path class="cls-1" d="M149.64,174.22a1.69,1.69,0,0,1,1.29,1.72v3q0,3.17.21,6a28.19,28.19,0,0,0-.21,4.29l.21.43c0,.15-.07.22-.21.22q.21,5,.21,7.52v20.41q0,11.6.22,32.44,0,1.29-4.73,1.29h-7.95a.38.38,0,0,1-.43-.43v-1.93c0-.33,1.15-.83,3.44-1.51v-.21a3.2,3.2,0,0,0-2.58-1.08h-.86v-1.72c.86,0,1.29-.14,1.29-.43l-.43-.64a.38.38,0,0,0,.43-.43V243h-1.29V227.08c0-1.58.07-2.37.22-2.37-.15-1.46-.22-2.61-.22-3.43V174.87c0-.29.18-.43.43-.43h9A10.7,10.7,0,0,0,149.64,174.22ZM138.25,243.4h.65v.22a.38.38,0,0,1-.43.43l-.22-.43Zm.86-8.59a1.73,1.73,0,0,1-.21.65,1.64,1.64,0,0,1,.21.64h.43a1.54,1.54,0,0,1,.22-.64,1.62,1.62,0,0,1-.22-.65Zm0,5.16-.21.43v.21c0,.22.21.43.64.65H140a.38.38,0,0,0,.43-.43v-.22A3.81,3.81,0,0,1,139.11,240Zm3-13.75.43.21c.57-.21.86-.43.86-.64a.38.38,0,0,0-.43-.43C142.76,225.36,142.48,225.64,142.12,226.22Zm.21,9.24v.21c0,.29.18.43.43.43h.86v-.64a1.71,1.71,0,0,1-.64-.22A1.74,1.74,0,0,1,142.33,235.46Zm.86,4.51-.43.64c.11.86.33,1.29.65,1.29h.43l.21-1.07v-.22C144.05,240.4,143.77,240.18,143.19,240Zm0-20.2v.43h.43a.38.38,0,0,0,.43-.43.38.38,0,0,0-.43-.43C143.34,219.38,143.19,219.52,143.19,219.77Zm0,13.54a6,6,0,0,1,.22,1.5h.86c.21,0,.5-.29.86-.86v-.64a2,2,0,0,1-1.08-.65C143.48,232.88,143.19,233.09,143.19,233.31Zm.65-17c0,.22.28.51.86.86h.21c.54-.71,1-1.07,1.29-1.07,0-.22-.21-.43-.64-.65h-.22A1.48,1.48,0,0,0,143.84,216.33Zm.43,9.67c0,.29.18.43.43.43h.21V226Zm1.29,7.09v.65h.64v-.22a.38.38,0,0,0-.43-.43Zm.21,5.8v.65H146a.39.39,0,0,0,.43-.43v-.22Zm.22,1.51V241h1.07v-.43Zm1.07-15.47c0,.21.22.43.65.64h.21a.38.38,0,0,0,.43-.43v-.43a.38.38,0,0,0-.43-.43h-.21C147.49,224.28,147.28,224.5,147.06,224.93Zm.43,8.59v.22c0,.21.29.43.86.64l.21-.43v-.43c-.28,0-.43-.07-.43-.21A1.64,1.64,0,0,1,147.49,233.52Zm.22-11.39v.65c0,.29.17.43.42.43h.43l.22-1.08a.37.37,0,0,0-.43-.42h-.22Q147.71,221.76,147.71,222.13ZM149,176.59a1.59,1.59,0,0,1,.22.64h.21c.22,0,.5-.28.86-.86a.38.38,0,0,0-.43-.43h-.43C149.14,175.94,149,176.16,149,176.59Zm.86,45.54v.43h.22v-.43Zm0,12.68V235c0,.28.18.43.43.43a.38.38,0,0,0,.43-.43l-.43-.22Zm.43-10.53v.43a.38.38,0,0,0,.43-.43ZM169.62,174c0,.79.57,1.29,1.72,1.5a1.43,1.43,0,0,1,1.07,1.51v2.79a.19.19,0,0,1-.21.22l.21.43v3.86c0,1.29-.93,1.94-2.79,1.94H155.44a2.1,2.1,0,0,1-1.07-2.15v-7.52q0-2.58,1.5-2.58Zm-5.37,31.37c1.14,0,1.72,1.07,1.72,3.22v7.09c0,1.29-.93,1.93-2.8,1.93h-7.73a2.09,2.09,0,0,1-1.07-2.15V208q0-2.58,1.5-2.58Zm6.44,33.94c1.15,0,1.72,1.08,1.72,3.22v7.09c0,1.29-.93,1.94-2.79,1.94H155.44a2.09,2.09,0,0,1-1.07-2.15V241.9q0-2.58,1.5-2.58Zm-15.47-29v.86c0,.28.18.43.43.43l.22-.43v-.43a.38.38,0,0,0-.43-.43Zm11.18,30.51a2.27,2.27,0,0,0-.43,1.07c.14,0,.21.07.21.22.57-.22.86-.43.86-.65S166.83,241,166.4,240.83Zm-.22,7.73v.65a1.73,1.73,0,0,1,.65.21v-.21C166.83,249,166.61,248.78,166.18,248.56Zm2.15-8.38v.22h.43v-.22Zm2.79,4.94v.65h.65v-.65Z"/><path class="cls-1" d="M190.1,145.18l.7-.2c.44,2.4.83,4.19,1.17,5.35l1.53,5.26a18.77,18.77,0,0,0,1.27,3q1,3.6-1.53,18.31-2,14.25-2.23,18.51l8.41-2.44c1.87-.55,3.32.94,4.33,4.44L207.11,209q.91,3.15-3.64,4.47l-17.87,5.19c-1.33-.18-2.25-1.18-2.77-3L181,209.39a4.39,4.39,0,0,1,.09-2.31,8.23,8.23,0,0,1,8,1.47l1-.3-.3-1.05c-.1-.35-.56-.6-1.36-.75l.15-.8q-.28-1-6.82.08l-.1-.35q-.43-1.5,3.54-28.4,2.17-13.46,2-13.89Zm-2.9,38.46.2.7a.64.64,0,0,0,.5-.9Zm8.07,23.88c.11.35.71.69,1.81,1a.73.73,0,1,0-.4-1.4Zm-7.11-33.66.31,1.06c2.05-.79,3-1.45,2.85-2l-.81-.15-.7.2Zm9.14,26.24.1.35a.69.69,0,0,0,.9.49l-.3-1.05Zm3.77,3.84.11.35.35-.1c1.33-.64,1.93-1.2,1.79-1.66a.64.64,0,0,0-.9-.5C201.42,203,201,203.59,201.07,203.94ZM198,120.08l6-1.73q7.44-1.87,7.87-.39l18.42,63.45q.15.53-.75,1.35l-.35.1c-1.4.41-3.23-.2-5.47-1.83l-1.4.41,1.45,1.1c-.35.1-.6.55-.74,1.35.62.84,1.11,1.2,1.46,1.1l3.15-.92c1.81-.52,3-.36,3.56.49l2.65,9.11c.13.47-.15.81-.85,1l-1.85.16-.15.8.2.7,1.05-.3c1.44-.29,2.24-.15,2.41.44l2.24,7.71a.64.64,0,0,1-.5.9l-1.4.41c-.58.17-1.07-.2-1.46-1.1l-.7.21.56.6a4.09,4.09,0,0,1-1.8,1.66l.2.7c1.17-.34,1.82-.28,2,.19l.6-.55.35-.1a4.74,4.74,0,0,1,3.21.58q2.38,6.92,3.4,10.42l2.75,9.46.26,2.21a2.6,2.6,0,0,1,.65.95,3.89,3.89,0,0,0-2.44,3.36c.07.24.64.45,1.71.65.7-.2.88-.89.54-2.06l.7-.2,2.85,9.81-.7.21c-.2-.71-.84-1.15-1.91-1.35l-.39,1.26.4,1.4,1.75-.51.21.7-20.33,5.9a.65.65,0,0,1-.91-.5l-1.52-5.25a.7.7,0,0,1,.5-.91q.3,1,5.16.78a4,4,0,0,0-.26-2.2c-2.79,0-4.28-.34-4.46-1a3,3,0,0,1,2.29-2.56,18.84,18.84,0,0,1,3.26-.57,4.19,4.19,0,0,1,1.9-1.31l.7-.2c.35-.11.8.14,1.36.74l.1.35c.13.47-.7,1.09-2.5,1.87a4.57,4.57,0,0,0,5,1.58c0-.77.63-1.32,1.8-1.66.79,1.23,2.47,1.75,5,1.58,1.25-.93,1.71-2,1.39-3.06-1,.09-1.52,0-1.61-.3l-.6.56-1.4.41c-1.16-.74-2.85-.89-5.06-.43l-.56-.6-.2-.7c-.1-.36.14-.81.74-1.36l.7-.2,1.26.39.7-.2c.35-.1.6-.56.75-1.36a3.78,3.78,0,0,0-1.26-.4l-2,1c-1.42-1.62-2.27-2.38-2.57-2.3l-.35.1-.6.56.56.6.2.7a.64.64,0,0,1-.5.9h-2.65c.15.53-.33,1.05-1.45,1.56a4.05,4.05,0,0,0-2-.19l-1.65.86a11,11,0,0,0-2.55.36.65.65,0,0,1-.5.91l-.35.1-2.95-10.17,1.75-.51-.2-.7c-1.22.17-1.91,0-2.06-.54l-1.12-3.85.15-.81,2.06.55,2.1-.62,2.35-1.06-.1-.35a.65.65,0,0,0-.91-.5l-.7.21-.84,1-.36.11c-1.57-1.07-2.59-1.53-3.06-1.4a2.89,2.89,0,0,1-.95.66.32.32,0,0,0-.45-.25q-4.43-13.92-6.46-20.93l-8-27.69c-.15-.52.57-1.11,2.15-1.76a18.08,18.08,0,0,0,4.51-.17l1.06-.31-.21-.7c-4.91.54-7.58.05-8-1.47l-.8-.14.15-.81-.92-3.15c-.27-.93-.52-1.37-.76-1.3l-.36-2.56-7.43-25.58q-.89-3.08,1.06-12.09Zm25.47,119.16.7-.2.62,2.1-.71.2Zm-14.95-63.31q.22.8,5.56-.47l-.21-.7a13.2,13.2,0,0,0-4.16.06l-.7.21A.69.69,0,0,0,208.53,175.93Zm-11.36-40.41.31,1,.35-.1a.64.64,0,0,0,.5-.9l-.1-.35Zm4.58,15.78.21.7,1.5-.06.15-.8-.81-.15Zm14.79,47-.15.8.11.35a27.43,27.43,0,0,0,3-.11l.35-.1a.65.65,0,0,0,.5-.91Q220.1,197.47,216.54,198.31Zm7.23,24.88.3,1.06a.7.7,0,0,0,.91.49l.35-.1a.64.64,0,0,0,.49-.9q-.15-.53-1.35-.75Zm-26.72-93.33.41,1.4,1-.31-.41-1.4Zm25.37,83.46-.39,1.26.2.7,1.85-.16.15-.8Zm8.36,31.4.2.7.86,1.65.7-.2.85-1c2.41-.19,3.76-.33,4.06-.41l.85-1,.35-.1a4.44,4.44,0,0,0,3.21.59l1.75-.51q-.3-1-8.28-1l-2.25,1.41Zm-26.27-93.09,1.4-.4-.2-.7-.7.2C204.56,150.93,204.39,151.23,204.51,151.63Zm16.42,52.63,1.5-.06-.1-.35a.64.64,0,0,0-.9-.5C221,203.55,220.81,203.85,220.93,204.26Zm-9.11-32.7.1.35q.26.87,3.81,0a2.6,2.6,0,0,1,1-.65l-.21-.71a.64.64,0,0,0-.9-.49C213.59,170.92,212.34,171.4,211.82,171.56Zm13.33,45.91,1.56,1.45.15,1.86.81.14c.83-.62,1.2-1.11,1.09-1.46l-.61-2.1q-.15-.53-1.35-.75Zm1.73,6,.5,1.75c.14.47.79.54,2,.2q-.61-2.1,4.3-3.53l-.1-.35a5.11,5.11,0,0,0-3.46-.14l-2.46.72C227.27,222.18,227,222.63,226.88,223.43ZM217,185.62l.1.35a.71.71,0,0,0,.91.5l.7-.2-.11-.35a.64.64,0,0,0-.9-.5Zm-2.19-8.86.1.35c.43.63,1.24.78,2.41.44l1.3-.76a.31.31,0,0,0,.45.25l.15-.8a9,9,0,0,0-4.06.42Zm2,5.5c1.75.77,3,1,3.67.84l.39-1.25a2,2,0,0,0-2.51-.8l-1.05.31A.71.71,0,0,0,216.82,182.26ZM221.29,195c.19.64,2,.64,5.31,0l.15-.81-1.25-.39Zm1.78,4.81-.15.8a8.36,8.36,0,0,0,4.26.28,2.89,2.89,0,0,1,.95-.66l-.2-.7-2.11.61A4.22,4.22,0,0,0,223.07,199.84Zm-15-53,.1.35a.7.7,0,0,0,.91.49l.7-.2-.31-1ZM216,174.15a.69.69,0,0,0,.9.49l.35-.1a.65.65,0,0,0-.9-.5Zm14.88,44.7.2.7,1.5-.05c.84-.62,1.2-1.11,1.1-1.46l-1.25-.4-1.06.31A.69.69,0,0,0,230.87,218.85Zm-3.32-12.72.31,1.05a6.3,6.3,0,0,0,2.66,0l-.51-1.75a2.89,2.89,0,0,0-1.51.06A2.6,2.6,0,0,1,227.55,206.13Zm-1.78-19.24-.15.8c.1.35.71.69,1.81,1l.15-.81-.1-.35C227.37,187.18,226.8,187,225.77,186.89Zm7.28,26.39.1.35a6.25,6.25,0,0,1,2,2.85,2.84,2.84,0,0,0,0,1.5l3.11.24.4-1.26q-1.41.42-2.83-4.5l-.1-.35-1.85.16-.35.1C233.1,212.57,232.93,212.87,233.05,213.28Zm3.85,10.66.11.35c.7-.2,1.08-.19,1.15.05a3.94,3.94,0,0,1,1.55-1.21.65.65,0,0,0-.91-.5l-1.4.41A.7.7,0,0,0,236.9,223.94Zm-22.74-79.67.2.71,1.85-.16-.1-.35a.64.64,0,0,0-.9-.5Zm7.83,27c.44.64,1.24.78,2.41.44l.7-.2c-.44-.63-1.24-.78-2.41-.44Zm-13.7-51.13,1.05-.3-.2-.7-.35.1A.69.69,0,0,0,208.29,120.13ZM241,228.84l.2.7,1.85-.16q-.15-.52-1.35-.75Zm-.53-7.07.2.7a2.6,2.6,0,0,1,1-.65l-.31-1.06-.35.11A.69.69,0,0,0,240.46,221.77Zm5.23-42.18q2.81-.83,4.33,4.44l3.36,11.57c.61,2.1-.61,3.59-3.64,4.47l-2.46.72c-3,.88-4.86.27-5.47-1.84l-2-7a.32.32,0,0,1,.25-.45l-.56-.6-.2-.7q-2.34-8.06-.59-8.57ZM239.94,182l-.15.8.1.35,1.75-.51-.2-.7A3,3,0,0,1,239.94,182Zm3.94,8.35.1.35c.47-.13,1.76.38,3.87,1.54l1.05-.31c.35-.1.68-.7,1-1.8l-.11-.35q-.19-.7-4.71-.54l-.7.21C243.93,189.66,243.76,190,243.88,190.37Zm-2-8.16.1.35,1-.31-.1-.35Z"/><path class="cls-1" d="M262.14,173.79h7.3v.86a1.57,1.57,0,0,0,.65.22,2.25,2.25,0,0,0,.21-1.08h1.51q1.33,0,3.65,12l3.22,12.67c-.14,0-.21.07-.21.22-1.15-.33-1.72-.76-1.72-1.29h-.65c-.28,0-.5.43-.64,1.29a5.89,5.89,0,0,0,2.58.64c.71,0,1.07.79,1.07,2.36q.86,1.56,3,11.61a1.72,1.72,0,0,0-.22.86c.29,0,.43.18.43.43l-.64.85c1.14,0,1.72,1.37,1.72,4.09q.38.27,1.5,6c-.29,0-.43.18-.43.43v.43c.72,0,1.22.93,1.51,2.79-.29,0-.43.18-.43.43q.75,0,1.93,6.45l-.43.21H286v.43a5.81,5.81,0,0,0,1.93.43q-1.94,9.78-2.15,10.1a.19.19,0,0,0,.22.22c-.33,2.43-1,3.65-1.94,3.65a39.82,39.82,0,0,1-4.08.21h-.43q-1.29,0-4.3-14.61-1.5-5.31-3-12.24c-.22,0-.43-.57-.65-1.72h.22q1.13.21,1.29.21a2.53,2.53,0,0,1,1.28-.43c0,.29.18.43.43.43h.43a.38.38,0,0,0,.43-.43c0-.32-.35-.53-1.07-.64a1.64,1.64,0,0,0-.64.21l-1.08-.21h-1.29q-3-11.17-6.23-25.35a64.12,64.12,0,0,1-1.93-8.6.19.19,0,0,1,.21.22c1.15-.14,1.72-.36,1.72-.65v-.21l-1.07-.21h-.43l-.65.42a3.62,3.62,0,0,1-.43-1.71V185a.19.19,0,0,1,.22-.22l-.43-.86a1.71,1.71,0,0,0,.21-.86c-.57,0-.86-.21-.86-.64V182h.43c.65,0,1.36.57,2.15,1.72l2.15.21.64-.86c-.64-.28-1-.57-1.07-.86.72-.17,1.07-.39,1.07-.64v-.22q-.42,0-.42-.21a1.73,1.73,0,0,1-.65.21c-.18,0-.89-.07-2.15-.21a1.64,1.64,0,0,1-.64.21l-.43-.64v-.21l.21-.43-.64-.43-.65.43h-.21v-.65l.21-.43.43.22h.43l.65-.43h.43c.28,0,.43.35.43,1.07h.43a6.19,6.19,0,0,0,1.07-1.07c.72.32,1.08.53,1.08.64a.19.19,0,0,0,.21-.21l1.07.21h.22v-.21l-.43-.65c.14-.43.57-.64,1.29-.64h.43a.19.19,0,0,1,.21.21c.58-.21.86-.43.86-.64v-.22c-1.29,0-1.93-.43-1.93-1.29v-1.5h-.22a2.67,2.67,0,0,0-1.29.21,17.05,17.05,0,0,0-2.36-.21h-1.72v.43q0,.75,4.08,1.29c.72.57,1.08.93,1.08,1.07,0,.58-1.58.86-4.73.86-1.29-.39-1.93-.75-1.93-1.07v-2.8C261.74,173.94,261.89,173.79,262.14,173.79Zm-.43,22.56h.43q3.64,13.92,6,25.14c.15,0,.22.14.22.43-.29,0-.43.18-.43.43v.21c.64,0,1.22,1.58,1.72,4.73a20.57,20.57,0,0,1,.86,6.23v1.94l-.43.64.43.64v13.11c0,1.15-1.29,1.72-3.87,1.72h-2.36q-2.37,0-2.37-1.08a7.69,7.69,0,0,1-.21-1.93v-3.22q0-5.16.21-16.12h.22l-.22-.43v-5.58l.43-.65a.38.38,0,0,1-.43-.43q-.21-16.59-.21-24.92Zm1.5,39.32v.43h.86v-.43Zm2.15-46.84c0,.33.36.54,1.08.65l.21-.43-.43-.22Zm.22,3.23c0,.28.17.43.43.43h.64v-.22c0-.21-.21-.43-.64-.64C265.72,191.66,265.58,191.81,265.58,192.06Zm0,30.5c0,.29.17.43.43.43a.38.38,0,0,0,.43-.43v-.64h-.22C266,221.92,265.79,222.13,265.58,222.56Zm.64-35.23-.21.43.64.43h.86v-.43A10.63,10.63,0,0,1,266.22,187.33Zm1.5,44.9v.43l.86.22.22-.43-.43-.22Zm.86-48.77c0,.29.43.58,1.29.86,1-.36,1.51-.64,1.51-.86V183c0-.28-.22-.43-.65-.43A6,6,0,0,1,268.58,183.46Zm0,4.73a1.47,1.47,0,0,0,1.51,1.29h.21a.38.38,0,0,0,.43-.43v-.22c-.43,0-.64-.28-.64-.86h-.43Zm.65,3.22.64.43,1.51-.86a1.54,1.54,0,0,1-.86-.43h-.22C269.59,190.91,269.23,191.2,269.23,191.41Zm.21-6,1.08.43.43-.65-.43-.21h-.65C269.59,185,269.44,185.15,269.44,185.4Zm.43,6.66-.21.43.43.21.21-.43Zm.43-12.89v.21c0,.29.18.43.43.43H271v-.64Zm.22,8V188c.71-.17,1.07-.39,1.07-.64l-.43-.21Zm1.5,6.66v.43a1.73,1.73,0,0,1,.65.21V194A1.68,1.68,0,0,1,272,193.78Zm.65-10.1v.21c0,.29.17.43.43.43h.64a.38.38,0,0,0,.43-.43l-.43-.21Zm.21,31.15c0,.29.18.43.43.43v-.43Zm.43-20.41c.14.86.36,1.29.65,1.29h.42a.38.38,0,0,0,.43-.43v-.22c0-.75-.21-1.18-.64-1.28H274C273.74,193.78,273.53,194,273.31,194.42Zm0,13.54v.42c.43,0,.65.08.65.22a1.71,1.71,0,0,1,.64-.22.37.37,0,0,0-.43-.42Zm.43-9.89v.43h.64a.38.38,0,0,0-.42-.43Zm.64,31.15v.43h.43A.38.38,0,0,0,274.38,229.22Zm2.37-7.09v.65a18.36,18.36,0,0,1,5.8.86.38.38,0,0,0,.43-.43V223c0-.28-.79-.64-2.36-1.07l-1.94.21q-1.12-.21-1.29-.21A1.64,1.64,0,0,1,276.75,222.13Zm0,7.09v.65a2.59,2.59,0,0,1,1.29-.22.39.39,0,0,0-.43-.43Zm1.72.65,2.15.43c.71-.18,1.07-.39,1.07-.65A3.67,3.67,0,0,1,280,229C279,229.33,278.47,229.62,278.47,229.87Zm0,6.44v.43h1.93a8.28,8.28,0,0,1,1.93.43,11.62,11.62,0,0,1,1.94-.21v-.43h-.65c-.71,0-1.07-.14-1.07-.43l-.43.21a11.75,11.75,0,0,1-2.15-.21A6.4,6.4,0,0,1,278.47,236.31Zm0,2.8c0,.28.18.43.43.43h1.29c0-.25-.36-.47-1.08-.65A1.59,1.59,0,0,1,278.47,239.11Zm2.79-20.2c0,.29.18.43.43.43h.43a.38.38,0,0,0-.43-.43Zm1.07,9.88v.65a.38.38,0,0,0,.43-.43v-.22Zm2.15,11V240c0,.28.18.43.43.43a1.57,1.57,0,0,1,.65-.22.39.39,0,0,0-.43-.43Zm21.06-66.17.21.43v18.26l-1.5.43v.22c1,0,1.5.14,1.5.43v8.16l-1.5-.22h-.43c-.22,0-.43.22-.65.65,0,.32.58.54,1.72.64,0-.28.18-.43.43-.43h.43v1.94l-.64,1.07c.21,0,.43.22.64.65v13.75l-.21.43-.43-.22h-.43a1.57,1.57,0,0,1-.22.65l.65.43.43-.22.21.43v29.65a.38.38,0,0,1-.43.43h-8.59l-.65-.43h-.21v.43h-1.72c-.21,0-.5-.29-.86-.86V213.11h-.21c-1.19,6.3-1.9,9.45-2.15,9.45l-1.51-.21h-.21a7,7,0,0,1-1.5.21,8.28,8.28,0,0,1-.22-2.36h.43a3.29,3.29,0,0,0-1.5-2.79v-1.08q.38-4.08,1.29-4.08V212l-.43-.65,4.72-24.7c1.47-7.92,2.62-12.21,3.44-12.9h3.22Q300.93,173.79,305.54,173.58Zm-17.41,49.63h.22a9.61,9.61,0,0,1,2.36.43c0,.25-.36,1.82-1.07,4.73h-.43A23,23,0,0,1,288.13,223.21Zm3.66-28.79a2.36,2.36,0,0,1,.86,1.5h.21a5.43,5.43,0,0,1,2.36.43l.22-.43c-1.5-1.14-2.51-1.71-3-1.71A1.7,1.7,0,0,1,291.79,194.42Zm2.36,31.8v.86c0,.28.18.43.43.43h.21v-.86a.37.37,0,0,0-.42-.43Zm0,14.18v.43H295a.38.38,0,0,0-.43-.43Zm.43-41c.11.43.68.65,1.72.65h1.07q0-.49-1.5-1.29C295,198.86,294.58,199.08,294.58,199.36ZM295,212.9c0,.28.18.43.43.43h.43v-.43Zm.21-20.63v.22h.43v-.22Zm.22-12.89c.21.57.43.86.64.86h1.29v-.43a1.63,1.63,0,0,1-1.29-.64A1.64,1.64,0,0,1,295.44,179.38Zm1.07,12v.43h.22a.38.38,0,0,0,.43-.43Zm2.37-.86V191h.21v-.43Zm.64,33.52v.43H300a.43.43,0,0,0,0-.86C299.66,223.67,299.52,223.82,299.52,224.07Zm2.15-41.9a6.28,6.28,0,0,0,2.79,1.29h.43a2.53,2.53,0,0,1,.22-1.29,2.48,2.48,0,0,0-1.51-.64H303C302.1,181.6,301.67,181.82,301.67,182.17Zm.21,10.75v.21c.22.57.43.86.65.86l.21-.43c0-.21-.21-.43-.64-.64Zm.43,1.93v.21c0,.22.22.43.65.65l.21-.43-.64-.43Zm0,13.75v.21h.86v-.64h-.43C302.46,208.21,302.31,208.35,302.31,208.6Zm.65,38.46v.21c0,.29.18.43.43.43l.21-.43v-.21Zm.21-42.11.43.21h.65a1.54,1.54,0,0,1-.22-.64h-.43C303.32,204.55,303.17,204.7,303.17,205Zm.86-15.69c0,.29.18.43.43.43h.43a.38.38,0,0,0-.43-.43Z"/><path class="cls-1" d="M325.2,174.22a1.69,1.69,0,0,1,1.28,1.72v3c0,2.11.08,4.12.22,6a27.77,27.77,0,0,0-.22,4.29l.22.43a.19.19,0,0,1-.22.22q.22,5,.22,7.52v20.41q0,11.6.21,32.44,0,1.29-4.72,1.29h-7.95a.38.38,0,0,1-.43-.43v-1.93c0-.33,1.14-.83,3.44-1.51v-.21a3.2,3.2,0,0,0-2.58-1.08h-.86v-1.72c.86,0,1.29-.14,1.29-.43l-.43-.64a.38.38,0,0,0,.43-.43V243h-1.29V227.08q0-2.37.21-2.37c-.14-1.46-.21-2.61-.21-3.43V174.87c0-.29.18-.43.43-.43h9A10.79,10.79,0,0,0,325.2,174.22ZM313.81,243.4h.64v.22a.38.38,0,0,1-.43.43l-.21-.43Zm.86-8.59a1.62,1.62,0,0,1-.22.65,1.54,1.54,0,0,1,.22.64h.43a1.64,1.64,0,0,1,.21-.64,1.73,1.73,0,0,1-.21-.65Zm0,5.16-.22.43v.21c0,.22.22.43.65.65h.43a.39.39,0,0,0,.43-.43v-.22A3.81,3.81,0,0,1,314.67,240Zm3-13.75.43.21c.57-.21.85-.43.85-.64a.37.37,0,0,0-.42-.43C318.32,225.36,318,225.64,317.68,226.22Zm.21,9.24v.21c0,.29.18.43.43.43h.86v-.64a1.71,1.71,0,0,1-.64-.22A1.8,1.8,0,0,1,317.89,235.46Zm.86,4.51-.43.64c.11.86.32,1.29.64,1.29h.43l.22-1.07v-.22C319.61,240.4,319.32,240.18,318.75,240Zm0-20.2v.43h.43a.38.38,0,0,0,.43-.43.38.38,0,0,0-.43-.43C318.89,219.38,318.75,219.52,318.75,219.77Zm0,13.54a6.4,6.4,0,0,1,.21,1.5h.86c.22,0,.51-.29.86-.86v-.64a2,2,0,0,1-1.07-.65C319,232.88,318.75,233.09,318.75,233.31Zm.64-17c0,.22.29.51.86.86h.22c.54-.71,1-1.07,1.29-1.07,0-.22-.22-.43-.65-.65h-.21A1.49,1.49,0,0,0,319.39,216.33Zm.43,9.67c0,.29.18.43.43.43h.22V226Zm1.29,7.09v.65h.65v-.22a.39.39,0,0,0-.43-.43Zm.22,5.8v.65h.21a.38.38,0,0,0,.43-.43v-.22Zm.21,1.51V241h1.08v-.43Zm1.08-15.47c0,.21.21.43.64.64h.22a.38.38,0,0,0,.43-.43v-.43a.39.39,0,0,0-.43-.43h-.22C323.05,224.28,322.83,224.5,322.62,224.93Zm.43,8.59v.22c0,.21.28.43.86.64l.21-.43v-.43c-.29,0-.43-.07-.43-.21A1.7,1.7,0,0,1,323.05,233.52Zm.21-11.39v.65c0,.29.18.43.43.43h.43l.22-1.08a.38.38,0,0,0-.43-.42h-.22C323.4,221.74,323.26,221.88,323.26,222.13Zm1.29-45.54a1.76,1.76,0,0,1,.22.64H325c.22,0,.5-.28.86-.86a.38.38,0,0,0-.43-.43H325C324.69,175.94,324.55,176.16,324.55,176.59Zm.86,45.54v.43h.21v-.43Zm0,12.68V235c0,.28.18.43.43.43a.38.38,0,0,0,.43-.43l-.43-.22Zm.43-10.53v.43a.38.38,0,0,0,.43-.43ZM345.18,174q0,1.19,1.71,1.5A1.42,1.42,0,0,1,348,177v2.79a.2.2,0,0,1-.22.22l.22.43v3.86c0,1.29-.93,1.94-2.79,1.94H331a2.11,2.11,0,0,1-1.08-2.15v-7.52c0-1.72.5-2.58,1.51-2.58Zm-5.38,31.37c1.15,0,1.72,1.07,1.72,3.22v7.09c0,1.29-.93,1.93-2.79,1.93H331a2.1,2.1,0,0,1-1.08-2.15V208c0-1.72.5-2.58,1.51-2.58Zm6.45,33.94c1.15,0,1.72,1.08,1.72,3.22v7.09c0,1.29-.93,1.94-2.79,1.94H331a2.1,2.1,0,0,1-1.08-2.15V241.9c0-1.72.5-2.58,1.51-2.58Zm-15.47-29v.86c0,.28.18.43.43.43l.22-.43v-.43a.38.38,0,0,0-.43-.43ZM342,240.83a2.39,2.39,0,0,0-.43,1.07.19.19,0,0,1,.22.22c.57-.22.86-.43.86-.65S342.38,241,342,240.83Zm-.21,7.73v.65a1.64,1.64,0,0,1,.64.21v-.21C342.38,249,342.17,248.78,341.74,248.56Zm2.15-8.38v.22h.43v-.22Zm2.79,4.94v.65h.64v-.65Z"/><polygon class="cls-1" points="269.73 266.54 278.52 317.83 192.87 272.8 107.22 317.83 116.02 266.54 91.67 266.54 75.35 361.7 192.87 299.92 310.4 361.7 294.07 266.54 269.73 266.54"/><polygon class="cls-1" points="74.38 152 150.05 141 192.87 54.23 235.7 141 311.37 152 368.83 152 383.03 138.16 251.63 119.06 192.87 0 134.11 119.06 2.71 138.16 16.91 152 74.38 152"/></g></g></svg>